# xmcd
# 
# Track frame offsets:
#     150
#     15177
#     49075
#     66545
# 
# Disc length: 1154
# 
# Revision: 1
# Processed by: cddbd v1.5.2PL0 Copyright (c) Steve Scherf et al.
# Submitted via: fre:ac v1.0.17
# 
DISCID=2c048004
DTITLE=Lionrock - Wet Roads Glisten
DYEAR=1997
DGENRE=Rock
TTITLE0=Wet Roads Glisten (radio edit)
TTITLE1=Wet Roads (remix)
TTITLE2=Zip Gun Rumble
TTITLE3=Wet Roads Glisten
EXTD=
EXTT0=
EXTT1=
EXTT2=
EXTT3=
PLAYORDER=
